<svg width="149" height="85" viewBox="0 0 149 85" fill="none" xmlns="http://www.w3.org/2000/svg">
<g clip-path="url(#clip0_229_1371)">
<path d="M112.979 83.9765H99.8563V59.4456H112.979V83.9765ZM91.8919 59.4456H70.5631V83.9765H91.8919V79.0703H83.7164V73.6825H91.8919V69.0172H83.7164V64.3518H91.8919V59.4456ZM17.3466 13.0027C17.3466 11.4676 17.0751 10.4743 16.5321 9.99274C15.9891 9.51116 14.9935 9.27036 13.5153 9.27036V19.9857C14.9332 19.9857 15.9287 19.8051 16.5019 19.4138C17.0751 19.0225 17.3466 17.7583 17.3466 15.6514V13.0027ZM27.1211 26.5473C27.9658 27.5706 28.5088 28.5338 28.72 29.4067C28.9312 30.2796 29.0217 32.6574 29.0217 36.5402V49.2721H17.3466V33.2293C17.3466 30.6408 17.1355 29.0455 16.7433 28.4435C16.3209 27.8415 15.265 27.5104 13.5455 27.5104V49.2721H0.965394V1.0232H9.86497C15.8081 1.0232 19.8204 1.26399 21.902 1.71548C24.0138 2.16696 25.7032 3.34083 27.0306 5.20698C28.358 7.07313 29.0217 10.083 29.0217 14.1765C29.0217 17.9389 28.539 20.4672 27.6038 21.7314C26.6686 23.0257 24.8283 23.8083 22.083 24.049C24.587 24.6811 26.2764 25.5239 27.1211 26.5473ZM28.72 82.0802C29.5647 81.2374 29.9871 79.9733 29.9871 78.2275C29.9871 75.8196 29.2329 74.0738 27.7245 72.9903C26.2161 71.9067 22.5355 70.5221 16.6829 68.8366C14.6315 68.2647 13.3946 67.753 12.9723 67.3316C12.5198 66.9102 12.2784 66.3083 12.2784 65.4956C12.2784 64.8635 12.4896 64.3819 12.8818 64.0809C13.274 63.7799 13.8773 63.5993 14.6617 63.5993C15.3857 63.5993 15.8986 63.7197 16.2304 63.9605C16.5321 64.2013 16.7131 64.7431 16.7131 65.5859V67.3918H28.901V66.4286C28.901 64.4722 28.5088 63.0876 27.7245 62.275C26.9401 61.4623 25.3412 60.8001 22.9579 60.2583C20.5445 59.7165 17.6483 59.4456 14.2393 59.4456C11.132 59.4456 8.44707 59.6864 6.2448 60.168C4.04254 60.6496 2.44363 61.3419 1.44808 62.2148C0.452537 63.0876 -0.0301514 64.4421 -0.0301514 66.3384C-0.0301514 67.6326 0.331865 68.7162 1.02573 69.559C1.7196 70.4017 2.59447 71.0639 3.65035 71.5154C4.70623 71.997 6.87833 72.7495 10.1365 73.8029C13.3946 74.8564 15.4461 75.5788 16.2908 76.0303C17.1053 76.4818 17.4975 77.4148 17.4975 78.8596C17.4975 79.5218 17.2863 80.0034 16.864 80.3345C16.4416 80.6656 15.7779 80.8461 14.903 80.8461C14.0282 80.8461 13.4248 80.7257 13.093 80.4549C12.7611 80.184 12.5801 79.6121 12.5801 78.679V75.6992H0.392201V77.2944C0.392201 79.1305 0.784386 80.5452 1.53859 81.5384C2.29279 82.5317 3.92186 83.3745 6.42581 84.0066C8.89959 84.6386 11.9164 84.9697 15.4159 84.9697C18.6137 84.9697 21.4193 84.6988 23.8328 84.127C26.2764 83.5852 27.8753 82.8929 28.72 82.0802ZM50.4712 13.424C50.4712 11.1666 50.3505 9.75195 50.1092 9.11987C49.8678 8.48779 49.3549 8.1868 48.5706 8.1868C47.9069 8.1868 47.4242 8.42759 47.0622 8.93927C46.7002 9.45096 46.5493 10.9559 46.5493 13.424V35.9382C46.5493 38.7374 46.67 40.4531 46.8812 41.1153C47.1225 41.7775 47.6354 42.1085 48.4801 42.1085C49.3248 42.1085 49.898 41.7173 50.1092 40.9648C50.3505 40.2123 50.4712 38.4063 50.4712 35.577V13.424ZM62.6892 39.5501C62.4479 41.5668 61.754 43.4028 60.5473 45.0884C59.3406 46.7438 57.7115 48.0381 55.6601 48.941C53.6086 49.844 51.2254 50.2955 48.4801 50.2955C45.8856 50.2955 43.5627 49.8741 41.5113 49.0313C39.4598 48.1886 37.8006 46.9244 36.5335 45.2389C35.2665 43.5533 34.5424 41.7173 34.3011 39.7307C34.0597 37.7442 33.9391 34.2527 33.9391 29.2863V21.009C33.9391 16.1631 34.0597 12.7318 34.2709 10.7151C34.5123 8.69848 35.2061 6.86243 36.4129 5.17688C37.6196 3.52143 39.2486 2.22716 41.3001 1.32419C43.3515 0.421214 45.7348 -0.0302734 48.4801 -0.0302734C51.0745 -0.0302734 53.3975 0.391115 55.4489 1.23389C57.5003 2.07667 59.1596 3.34083 60.4266 5.02638C61.6937 6.71194 62.4177 8.54798 62.6591 10.5345C62.9004 12.5211 63.0211 16.0126 63.0211 20.9789V29.2261C63.0512 34.1022 62.9306 37.5335 62.6892 39.5501ZM54.8455 66.4286H62.6289V64.3518V59.4456H33.9391V64.3518V66.4286H41.6923V83.9765H54.8154V66.4286H54.8455ZM86.16 49.2721H73.5799V10.6549H66.1284V1.0232H93.6115V10.685H86.1298V49.2721H86.16ZM117.233 1.0232H96.7188V49.2721H117.233V39.6103H109.269V28.9853H117.112V19.8051H109.269V10.6549H117.233V1.0232ZM131.442 27.3299V49.2721H120.914V1.0232H131.442L138.502 22.7548V1.0232H149.03V49.2721H138.019L131.442 27.3299ZM149 83.9765V59.4456H138.502V70.492L131.442 59.4456H120.914V83.9765H131.442V72.8398L137.989 83.9765H149Z" fill="white"/>
</g>
<defs>
<clipPath id="clip0_229_1371">
<rect width="149" height="85" fill="white"/>
</clipPath>
</defs>
</svg>
