<svg width="30" height="30" viewBox="0 0 30 30" fill="none" xmlns="http://www.w3.org/2000/svg">
<path d="M15 0C6.71572 0 0 6.71572 0 15C0 23.2842 6.71572 30 15 30C23.2842 30 30 23.2842 30 15C30 6.71572 23.2842 0 15 0ZM15.4201 21.7961C15.0207 22.1955 14.3958 22.2318 13.9554 21.905L13.8292 21.7961L7.82794 15.7948C7.42849 15.3954 7.39224 14.7702 7.71914 14.3298L7.82809 14.2036L13.8304 8.20367C14.2698 7.76442 14.9821 7.76455 15.4214 8.20396C15.8207 8.60344 15.857 9.22845 15.5301 9.66881L15.421 9.79496L11.3382 13.876L21.3757 13.8756C21.9453 13.8756 22.416 14.2987 22.4904 14.8479L22.5007 15.0006C22.5007 15.5701 22.0775 16.0408 21.5285 16.1152L21.3757 16.1256L11.3412 16.126L15.4201 20.205C15.8196 20.6045 15.8559 21.2295 15.5291 21.6699L15.4201 21.7961Z" fill="#343B40"/>
</svg>
