<?xml version="1.0" encoding="utf-8"?>

<svg viewBox="0 0 163 50" xmlns="http://www.w3.org/2000/svg" xmlns:xlink="http://www.w3.org/1999/xlink"><style>:root>svg{display:none}:root>svg:target{display:block}</style>
    
    <svg id="auth" viewBox="0 0 21 21" fill="none" xmlns="http://www.w3.org/2000/svg">
        <path d="M10.5001 20.0832C5.20735 20.0832 0.916748 15.7925 0.916748 10.4998C0.916748 5.20711 5.20735 0.916504 10.5001 0.916504C15.7928 0.916504 20.0834 5.20711 20.0834 10.4998C20.0834 15.7925 15.7928 20.0832 10.5001 20.0832ZM15.2917 11.9373C15.2917 11.1435 14.6481 10.4998 13.8542 10.4998H7.14591C6.352 10.4998 5.70841 11.1435 5.70841 11.9373V12.4165C5.70841 14.3058 7.49045 16.2498 10.5001 16.2498C13.5097 16.2498 15.2917 14.3058 15.2917 12.4165V11.9373ZM13.1355 6.90609C13.1355 5.45059 11.9556 4.27067 10.5001 4.27067C9.04456 4.27067 7.86466 5.45059 7.86466 6.90609C7.86466 8.36158 9.04456 9.5415 10.5001 9.5415C11.9556 9.5415 13.1355 8.36158 13.1355 6.90609Z" fill="currentColor"/>
    </svg>

    <svg id="home" viewBox="0 0 17 17" fill="none" xmlns="http://www.w3.org/2000/svg">
        <path d="M7.47235 1.79234C8.06593 1.29155 8.93407 1.29155 9.52765 1.79234L14.3089 5.82597C14.6679 6.12879 14.875 6.57451 14.875 7.04413V13.9879C14.875 14.6725 14.32 15.2275 13.6354 15.2275H11.5104C10.8258 15.2275 10.2708 14.6725 10.2708 13.9879V10.4462C10.2708 10.1528 10.033 9.91496 9.73958 9.91496H7.26042C6.96702 9.91496 6.72917 10.1528 6.72917 10.4462V13.9879C6.72917 14.6725 6.17419 15.2275 5.48958 15.2275H3.36458C2.67998 15.2275 2.125 14.6725 2.125 13.9879V7.04413C2.125 6.57451 2.33212 6.12879 2.69107 5.82597L7.47235 1.79234Z" fill="currentColor"/>
    </svg>

    <svg id="goods" viewBox="0 0 17 17" fill="none" xmlns="http://www.w3.org/2000/svg">
        <path d="M9.73962 1.4165H7.26046C6.44024 1.4165 5.76475 2.0361 5.67648 2.83277L4.42712 2.83317C3.54692 2.83317 2.83337 3.54672 2.83337 4.42692V13.9894C2.83337 14.8696 3.54692 15.5832 4.42712 15.5832H12.573C13.4531 15.5832 14.1667 14.8696 14.1667 13.9894V4.42692C14.1667 3.54672 13.4531 2.83317 12.573 2.83317L11.3236 2.83277C11.2353 2.0361 10.5598 1.4165 9.73962 1.4165ZM7.26046 2.479H9.73962C10.033 2.479 10.2709 2.71686 10.2709 3.01025C10.2709 3.30365 10.033 3.5415 9.73962 3.5415H7.26046C6.96706 3.5415 6.72921 3.30365 6.72921 3.01025C6.72921 2.71686 6.96706 2.479 7.26046 2.479ZM12.2403 6.17627C12.4477 6.38373 12.4477 6.72011 12.2403 6.92757L10.8236 8.34422C10.6161 8.55169 10.2798 8.55169 10.0723 8.34422L9.36399 7.63588C9.15652 7.42841 9.15652 7.0921 9.36399 6.8846C9.57147 6.67714 9.90778 6.67714 10.1153 6.8846L10.448 7.21726L11.489 6.17627C11.6965 5.96881 12.0328 5.96881 12.2403 6.17627ZM12.2403 10.8234L10.8236 12.2401C10.6161 12.4475 10.2798 12.4475 10.0723 12.2401L9.36399 11.5317C9.15652 11.3242 9.15652 10.9879 9.36399 10.7805C9.57147 10.573 9.90778 10.573 10.1153 10.7805L10.448 11.1131L11.489 10.0721C11.6965 9.86465 12.0328 9.86465 12.2403 10.0721C12.4477 10.2796 12.4477 10.6159 12.2403 10.8234ZM4.95837 7.26025C4.95837 6.96686 5.19623 6.729 5.48962 6.729H7.96886C8.26225 6.729 8.50011 6.96686 8.50011 7.26025C8.50011 7.55365 8.26225 7.7915 7.96886 7.7915H5.48962C5.19623 7.7915 4.95837 7.55365 4.95837 7.26025ZM5.48967 10.6248H7.96879C8.26218 10.6248 8.50004 10.8627 8.50004 11.1561C8.50004 11.4495 8.26218 11.6873 7.96879 11.6873H5.48967C5.19627 11.6873 4.95842 11.4495 4.95842 11.1561C4.95842 10.8627 5.19627 10.6248 5.48967 10.6248Z" fill="currentColor"/>
    </svg>

    <svg id="gallery" viewBox="0 0 17 17" fill="none" xmlns="http://www.w3.org/2000/svg">
        <path d="M9.86329 1.77344C10.4284 1.77344 10.9513 2.07269 11.2375 2.55995L11.8145 3.54211H13.2812C14.5526 3.54211 15.5833 4.57279 15.5833 5.84419V12.5734C15.5833 13.8448 14.5526 14.8755 13.2812 14.8755H3.71871C2.4473 14.8755 1.41663 13.8448 1.41663 12.5734V5.84419C1.41663 4.57279 2.4473 3.54211 3.71871 3.54211H5.19234L5.81183 2.53323C6.10172 2.06113 6.61598 1.77344 7.16999 1.77344H9.86329ZM8.49996 5.66711C6.73955 5.66711 5.31246 7.09422 5.31246 8.85464C5.31246 10.615 6.73955 12.0421 8.49996 12.0421C10.2604 12.0421 11.6875 10.615 11.6875 8.85464C11.6875 7.09422 10.2604 5.66711 8.49996 5.66711ZM8.49996 6.72961C9.6736 6.72961 10.625 7.681 10.625 8.85464C10.625 10.0282 9.6736 10.9796 8.49996 10.9796C7.32632 10.9796 6.37496 10.0282 6.37496 8.85464C6.37496 7.681 7.32632 6.72961 8.49996 6.72961Z" fill="currentColor"/>
    </svg>

    <svg id="company" viewBox="0 0 17 17" fill="none" xmlns="http://www.w3.org/2000/svg">
        <path d="M10.979 1.4165H8.32275C8.02936 1.4165 7.7915 1.65436 7.7915 1.94775V4.30005C5.38863 4.64376 3.5415 6.71025 3.5415 9.20817H3.01025C2.13005 9.20817 1.4165 9.92175 1.4165 10.8019V15.0519C1.4165 15.3453 1.65436 15.5832 1.94775 15.5832H7.08317C7.18099 15.5832 7.26025 15.5039 7.26025 15.4061V13.2811C7.26025 13.0855 7.41885 12.9269 7.61442 12.9269H9.38525C9.58082 12.9269 9.73942 13.0855 9.73942 13.2811V15.4061C9.73942 15.5039 9.81868 15.5832 9.9165 15.5832H15.0519C15.3453 15.5832 15.5832 15.3453 15.5832 15.0519V10.8019C15.5832 9.92175 14.8696 9.20817 13.9894 9.20817H13.4582C13.4582 6.58884 11.4271 4.44389 8.854 4.26229V3.5415H10.979C11.1746 3.5415 11.3332 3.38294 11.3332 3.18734V1.77067C11.3332 1.57507 11.1746 1.4165 10.979 1.4165ZM10.979 8.32275V9.73942C10.979 10.0328 10.7411 10.2707 10.4478 10.2707C10.1544 10.2707 9.9165 10.0328 9.9165 9.73942V8.32275C9.9165 8.02936 10.1544 7.7915 10.4478 7.7915C10.7411 7.7915 10.979 8.02936 10.979 8.32275ZM8.32275 7.7915C8.61615 7.7915 8.854 8.02936 8.854 8.32275V9.73942C8.854 10.0328 8.61615 10.2707 8.32275 10.2707C8.02936 10.2707 7.7915 10.0328 7.7915 9.73942V8.32275C7.7915 8.02936 8.02936 7.7915 8.32275 7.7915ZM6.729 8.32275V9.73942C6.729 10.0328 6.49115 10.2707 6.19775 10.2707C5.90436 10.2707 5.6665 10.0328 5.6665 9.73942V8.32275C5.6665 8.02936 5.90436 7.7915 6.19775 7.7915C6.49115 7.7915 6.729 8.02936 6.729 8.32275ZM4.07275 10.979C4.36615 10.979 4.604 11.2169 4.604 11.5103V13.2811C4.604 13.5745 4.36615 13.8123 4.07275 13.8123C3.77936 13.8123 3.5415 13.5745 3.5415 13.2811V11.5103C3.5415 11.2169 3.77936 10.979 4.07275 10.979ZM13.4582 11.5103V13.2811C13.4582 13.5745 13.2203 13.8123 12.9269 13.8123C12.6335 13.8123 12.3957 13.5745 12.3957 13.2811V11.5103C12.3957 11.2169 12.6335 10.979 12.9269 10.979C13.2203 10.979 13.4582 11.2169 13.4582 11.5103Z" fill="currentColor"/>
    </svg>

    <svg id="contacts" viewBox="0 0 17 17" fill="none" xmlns="http://www.w3.org/2000/svg">
        <path d="M3.72119 9.91685L11.5045 9.9177C11.5782 10.0393 11.6683 10.1521 11.7742 10.2526L12.2832 10.7358C12.2226 10.9713 12.1239 11.2076 11.9853 11.4459C11.8453 11.6866 11.6835 11.8971 11.4992 12.0788L10.9365 11.8911C10.2747 11.6705 9.55607 11.9233 9.16047 12.5046L8.64941 13.2554C8.20401 13.9098 8.28334 14.8037 8.84037 15.3629L9.00152 15.5245C8.61796 15.5645 8.21463 15.5843 7.79161 15.5843C5.74487 15.5843 4.15904 15.1192 3.05201 14.1674C2.46507 13.6629 2.12744 12.9273 2.12744 12.1533V11.5106C2.12744 10.6304 2.84099 9.91685 3.72119 9.91685ZM12.0491 8.6738L12.4056 7.83308C12.5727 7.43882 12.9732 7.22433 13.3661 7.30615L13.45 7.32825L13.8965 7.47091C14.3391 7.61236 14.6781 7.9916 14.7875 8.46774C15.0477 9.59945 14.7356 10.9772 13.8511 12.6012C12.968 14.2227 12 15.1978 10.9472 15.5261C10.5384 15.6536 10.0992 15.561 9.76893 15.2837L9.68166 15.2035L9.34251 14.8631C9.04869 14.5681 8.9882 14.1014 9.18519 13.7363L9.23527 13.6539L9.74626 12.9032C9.94736 12.6077 10.2914 12.468 10.6228 12.5386L10.7127 12.5631L11.6562 12.8777C12.0327 12.5928 12.3466 12.2342 12.5979 11.8019C12.8134 11.4313 12.9543 11.0558 13.0207 10.6752L13.0477 10.4844L12.2622 9.73885C12.0034 9.49327 11.9094 9.11077 12.0152 8.76659L12.0491 8.6738L12.4056 7.83308L12.0491 8.6738ZM7.79161 1.42017C9.74761 1.42017 11.3333 3.00583 11.3333 4.96183C11.3333 6.91785 9.74761 8.50351 7.79161 8.50351C5.83559 8.50351 4.24993 6.91785 4.24993 4.96183C4.24993 3.00583 5.83559 1.42017 7.79161 1.42017Z" fill="currentColor"/>
    </svg>

    <svg id="search" viewBox="0 0 24 24" fill="none" xmlns="http://www.w3.org/2000/svg">
        <path d="M10 2.75C14.0041 2.75 17.25 5.99594 17.25 10C17.25 11.7319 16.6427 13.3219 15.6295 14.5688L20.5303 19.4697C20.8232 19.7626 20.8232 20.2374 20.5303 20.5303C20.2641 20.7966 19.8474 20.8208 19.5538 20.6029L19.4697 20.5303L14.5688 15.6295C13.3219 16.6427 11.7319 17.25 10 17.25C5.99594 17.25 2.75 14.0041 2.75 10C2.75 5.99594 5.99594 2.75 10 2.75ZM10 4.25C6.82436 4.25 4.25 6.82436 4.25 10C4.25 13.1756 6.82436 15.75 10 15.75C13.1756 15.75 15.75 13.1756 15.75 10C15.75 6.82436 13.1756 4.25 10 4.25Z" fill="currentColor"/>
    </svg>


</svg>    